<?xml version="1.0" encoding="UTF-8"?>
<svg xmlns="http://www.w3.org/2000/svg" width="522" height="117" viewBox="0 0 522 117">
<rect x="0" y="0" width="522" height="117" fill="#ffffff"/>
<text x="22.55" y="57.75" font-family="Bravura, Noto Music, serif" font-size="46" fill="#111" dominant-baseline="middle">&#119070;</text>
<text x="52.55" y="17.27" font-family="Times New Roman, serif" font-size="11" fill="#222">q = 120</text>
<line class="staff-line" x1="52.55" y1="27.27" x2="496.63" y2="27.27" stroke="#111" stroke-width="0.92"/>
<line class="staff-line" x1="52.55" y1="37.43" x2="496.63" y2="37.43" stroke="#111" stroke-width="0.92"/>
<line class="staff-line" x1="52.55" y1="47.59" x2="496.63" y2="47.59" stroke="#111" stroke-width="0.92"/>
<line class="staff-line" x1="52.55" y1="57.75" x2="496.63" y2="57.75" stroke="#111" stroke-width="0.92"/>
<line class="staff-line" x1="52.55" y1="67.91" x2="496.63" y2="67.91" stroke="#111" stroke-width="0.92"/>
<line class="staff-barline" x1="52.55" y1="27.27" x2="52.55" y2="67.91" stroke="#111" stroke-width="0.88"/>
<line class="staff-barline" x1="496.63" y1="27.27" x2="496.63" y2="67.91" stroke="#111" stroke-width="1.23"/>
<line class="ledger-line" x1="44.55" y1="88.23" x2="60.55" y2="88.23" stroke="#111" stroke-width="1"/>
<line class="ledger-line" x1="44.55" y1="78.07" x2="60.55" y2="78.07" stroke="#111" stroke-width="1"/>
<ellipse class="notehead notehead-filled" cx="52.55" cy="88.23" rx="5.32" ry="3.56" transform="rotate(-21.25 52.55 88.23)" fill="#111"/>
<line class="note-stem" x1="57.35" y1="88.23" x2="57.35" y2="60.24" stroke="#111" stroke-width="1"/>
<line class="ledger-line" x1="118.56" y1="78.07" x2="134.56" y2="78.07" stroke="#111" stroke-width="1"/>
<ellipse class="notehead notehead-filled" cx="126.56" cy="83.15" rx="5.32" ry="3.56" transform="rotate(-21.25 126.56 83.15)" fill="#111"/>
<line class="note-stem" x1="131.36" y1="83.15" x2="131.36" y2="55.16" stroke="#111" stroke-width="1"/>
<line class="ledger-line" x1="192.58" y1="78.07" x2="208.58" y2="78.07" stroke="#111" stroke-width="1"/>
<ellipse class="notehead notehead-filled" cx="200.58" cy="78.07" rx="5.32" ry="3.56" transform="rotate(-21.25 200.58 78.07)" fill="#111"/>
<line class="note-stem" x1="205.38" y1="78.07" x2="205.38" y2="50.08" stroke="#111" stroke-width="1"/>
<ellipse class="notehead notehead-filled" cx="274.59" cy="72.99" rx="5.32" ry="3.56" transform="rotate(-21.25 274.59 72.99)" fill="#111"/>
<line class="note-stem" x1="279.39" y1="72.99" x2="279.39" y2="45.00" stroke="#111" stroke-width="1"/>
<ellipse class="notehead notehead-filled" cx="348.60" cy="67.91" rx="5.32" ry="3.56" transform="rotate(-21.25 348.60 67.91)" fill="#111"/>
<line class="note-stem" x1="353.40" y1="67.91" x2="353.40" y2="39.92" stroke="#111" stroke-width="1"/>
<ellipse class="notehead notehead-filled" cx="385.61" cy="62.83" rx="5.32" ry="3.56" transform="rotate(-21.25 385.61 62.83)" fill="#111"/>
<line class="note-stem" x1="390.41" y1="62.83" x2="390.41" y2="34.84" stroke="#111" stroke-width="1"/>
<ellipse class="notehead notehead-filled" cx="422.62" cy="57.75" rx="5.32" ry="3.56" transform="rotate(-21.25 422.62 57.75)" fill="#111"/>
<line class="note-stem" x1="427.42" y1="57.75" x2="427.42" y2="29.76" stroke="#111" stroke-width="1"/>
<ellipse class="notehead notehead-filled" cx="459.62" cy="52.67" rx="5.32" ry="3.56" transform="rotate(-21.25 459.62 52.67)" fill="#111"/>
<line class="note-stem" x1="464.42" y1="52.67" x2="464.42" y2="24.68" stroke="#111" stroke-width="1"/>
<polygon class="note-beam" points="57.35,60.24 464.42,24.68 464.42,27.48 57.35,63.04" fill="#111"/>
<polygon class="note-beam" points="353.40,34.92 464.42,19.68 464.42,22.48 353.40,37.72" fill="#111"/>
</svg>