<?xml version="1.0" encoding="UTF-8"?>
<svg xmlns="http://www.w3.org/2000/svg" width="640" height="220" viewBox="0 0 640 220">
<rect x="0" y="0" width="640" height="220" fill="#fffdf8"/>
<text x="68.00" y="24.00" font-family="Georgia, serif" font-size="14" fill="#1a1a1a">CHORDELIA SHEET</text>
<text x="68.00" y="42.00" font-family="Georgia, serif" font-size="12" fill="#444">tempo 120 | meter 4/4</text>
<text x="38.00" y="132.00" font-family="Bravura, Noto Music, serif" font-size="44" fill="#111">&#119070;</text>
<line class="staff-line" x1="68.00" y1="80.00" x2="610.00" y2="80.00" stroke="#222" stroke-width="1"/>
<line class="staff-line" x1="68.00" y1="92.00" x2="610.00" y2="92.00" stroke="#222" stroke-width="1"/>
<line class="staff-line" x1="68.00" y1="104.00" x2="610.00" y2="104.00" stroke="#222" stroke-width="1"/>
<line class="staff-line" x1="68.00" y1="116.00" x2="610.00" y2="116.00" stroke="#222" stroke-width="1"/>
<line class="staff-line" x1="68.00" y1="128.00" x2="610.00" y2="128.00" stroke="#222" stroke-width="1"/>
<line class="staff-barline" x1="68.00" y1="80.00" x2="68.00" y2="128.00" stroke="#222" stroke-width="1.2"/>
<line class="staff-barline" x1="610.00" y1="80.00" x2="610.00" y2="128.00" stroke="#222" stroke-width="1.2"/>
<text class="note-accidental" x="55.00" y="138.00" font-family="Bravura, Noto Music, serif" font-size="16" fill="#111">&#9837;</text>
<text class="note-accidental" x="55.00" y="114.00" font-family="Bravura, Noto Music, serif" font-size="16" fill="#111">&#9837;</text>
<ellipse class="notehead notehead-filled" cx="63.00" cy="104.00" rx="5" ry="3.6" fill="#111"/>
<ellipse class="notehead notehead-filled" cx="68.00" cy="110.00" rx="5" ry="3.6" fill="#111"/>
<ellipse class="notehead notehead-filled" cx="68.00" cy="122.00" rx="5" ry="3.6" fill="#111"/>
<ellipse class="notehead notehead-filled" cx="68.00" cy="134.00" rx="5" ry="3.6" fill="#111"/>
<line class="note-stem" x1="67.80" y1="104.00" x2="67.80" y2="76.00" stroke="#111" stroke-width="1"/>
</svg>